# xmcd CD database file
#
# Track frame offsets:
#	150
#	15367
#	32295
#	44275
#
# Disc length: 872 seconds
#
# Revision: 0
# Processed by: cddbd v1.5.1PL0 Copyright (c) Steve Scherf et al.
# Submitted via: CDex 1.51
#
DISCID=1d036604
DTITLE=SNIF - Individuality
DYEAR=2001
DGENRE=Rock
TTITLE0=Back track life
TTITLE1=System of Coexistence
TTITLE2=ROLLER GIRL
TTITLE3=Individuality
EXTD=YEAR: 2001
EXTT0=
EXTT1=
EXTT2=
EXTT3=
PLAYORDER=
